<svg id="Group_114828" data-name="Group 114828" xmlns="http://www.w3.org/2000/svg" width="16.805" height="16.872" viewBox="0 0 16.805 16.872">
  <path id="Path_17390" data-name="Path 17390" d="M19.92,11.832a1.787,1.787,0,0,0-.072-.291,1.87,1.87,0,0,0-2.071-1.2.54.54,0,0,1-.619-.446L16.71,7.05a6.227,6.227,0,0,0-4.49-5.043,2.416,2.416,0,0,0-4.775.728,5.969,5.969,0,0,0-2.738,6l.481,3.029a.541.541,0,0,1-.45.613,1.857,1.857,0,0,0-1.6,1.77,1.809,1.809,0,0,0,1.8,1.82h.019a1.881,1.881,0,0,0,.283-.022L7.1,15.653a2.415,2.415,0,0,0,3.272.914,2.383,2.383,0,0,0,1.182-1.608l6.85-1.068A1.8,1.8,0,0,0,19.92,11.832ZM9.657,1.277a1.284,1.284,0,0,1,.191-.015,1.221,1.221,0,0,1,1.009.54h-.029a5.829,5.829,0,0,0-.677.019,6.207,6.207,0,0,0-.706.108c-.05.01-.1.025-.15.037-.191.044-.378.1-.562.159-.018.005-.037.008-.055.015A1.208,1.208,0,0,1,9.657,1.277ZM9.2,15.67a1.2,1.2,0,0,1-.713-.233l1.7-.264A1.216,1.216,0,0,1,9.2,15.67Zm9.444-3.246a.606.606,0,0,1-.424.281l-7.3,1.137L7.372,14.4l-2.321.36a.607.607,0,0,1-.7-.6.654.654,0,0,1,.577-.592,1.743,1.743,0,0,0,1.458-1.985L5.9,8.546A4.8,4.8,0,0,1,8.356,3.589l.031-.012a4.88,4.88,0,0,1,1.875-.561,4.416,4.416,0,0,1,.6-.011l.1,0a4.807,4.807,0,0,1,.615.077h.019A5.008,5.008,0,0,1,15.51,7.235l.452,2.846a1.751,1.751,0,0,0,2,1.446.659.659,0,0,1,.732.387A.6.6,0,0,1,18.641,12.424Z" transform="translate(-3.137 0.001)" fill="#d8d8d8"/>
</svg>
