<svg xmlns="http://www.w3.org/2000/svg" width="19.554" height="17.924" viewBox="0 0 19.554 17.924">
  <g id="Group_114831" data-name="Group 114831" transform="translate(-210 -774)">
    <g id="grid" transform="translate(210 774)">
      <path id="Path_5410" data-name="Path 5410" d="M17.313,17.924H2.241A2.242,2.242,0,0,1,0,15.684V2.241A2.242,2.242,0,0,1,2.241,0H17.313a2.242,2.242,0,0,1,2.241,2.241V15.684A2.242,2.242,0,0,1,17.313,17.924ZM2.241,1.222A1.02,1.02,0,0,0,1.222,2.241V15.684A1.02,1.02,0,0,0,2.241,16.7H17.313a1.02,1.02,0,0,0,1.018-1.018V2.241a1.02,1.02,0,0,0-1.018-1.018Zm0,0" transform="translate(0 0)" fill="#d8d8d8"/>
      <path id="Path_5411" data-name="Path 5411" d="M18.943,129.222H.611a.611.611,0,1,1,0-1.222H18.943a.611.611,0,1,1,0,1.222Zm0,0" transform="translate(0 -123.112)" fill="#d8d8d8"/>
      <path id="Path_5412" data-name="Path 5412" d="M18.943,235.89H.611a.611.611,0,1,1,0-1.222H18.943a.611.611,0,1,1,0,1.222Zm0,0" transform="translate(0 -225.706)" fill="#d8d8d8"/>
      <path id="Path_5413" data-name="Path 5413" d="M18.943,342.554H.611a.611.611,0,1,1,0-1.222H18.943a.611.611,0,1,1,0,1.222Zm0,0" transform="translate(0 -328.296)" fill="#d8d8d8"/>
      <path id="Path_5414" data-name="Path 5414" d="M117.943,141.036a.611.611,0,0,1-.611-.611V128.611a.611.611,0,0,1,1.222,0v11.814A.611.611,0,0,1,117.943,141.036Zm0,0" transform="translate(-112.851 -123.112)" fill="#d8d8d8"/>
      <path id="Path_5415" data-name="Path 5415" d="M240.611,141.036a.611.611,0,0,1-.611-.611V128.611a.611.611,0,1,1,1.222,0v11.814A.611.611,0,0,1,240.611,141.036Zm0,0" transform="translate(-230.834 -123.112)" fill="#d8d8d8"/>
      <path id="Path_5416" data-name="Path 5416" d="M363.279,141.036a.611.611,0,0,1-.611-.611V128.611a.611.611,0,0,1,1.222,0v11.814A.611.611,0,0,1,363.279,141.036Zm0,0" transform="translate(-348.817 -123.112)" fill="#d8d8d8"/>
    </g>
  </g>
</svg>
